<?xml version="1.0" encoding="utf-8"?>
<!-- Generator: Adobe Illustrator 26.3.1, SVG Export Plug-In . SVG Version: 6.00 Build 0)  -->
<svg version="1.1" id="Layer_1" xmlns="http://www.w3.org/2000/svg" xmlns:xlink="http://www.w3.org/1999/xlink" x="0px" y="0px"
	 viewBox="0 0 200 200" style="enable-background:new 0 0 200 200;" xml:space="preserve">
<style type="text/css">
	.st0{opacity:0.2;fill:#888888;}
	.st1{opacity:0.6;fill:#888888;}
	.st2{fill:#888888;}
</style>
<path class="st0" d="M107.7,75.8H41.8c-7.2,0-13,5.8-13,13l0,0v65.9c0,7.2,5.8,13,13,13l0,0h65.9c7.2,0,13-5.8,13-13l0,0V88.8
	C120.8,81.6,114.9,75.8,107.7,75.8L107.7,75.8z"/>
<path class="st1" d="M133,54H67c-7.2,0-13,5.8-13,13l0,0V133c0,7.2,5.8,13,13,13l0,0H133c7.2,0,13-5.8,13-13l0,0V67
	C146,59.8,140.2,54,133,54L133,54z"/>
<path class="st2" d="M158,29.5H92c-7.2,0-13,5.8-13,13l0,0v65.9c0,7.2,5.8,13,13,13l0,0H158c7.2,0,13-5.8,13-13l0,0V42.5
	C171,35.3,165.2,29.5,158,29.5L158,29.5z"/>
</svg>
