<?xml version="1.0" encoding="utf-8"?>
<!-- Generator: Adobe Illustrator 16.0.0, SVG Export Plug-In . SVG Version: 6.00 Build 0)  -->
<!DOCTYPE svg PUBLIC "-//W3C//DTD SVG 1.1//EN" "http://www.w3.org/Graphics/SVG/1.1/DTD/svg11.dtd">
<svg version="1.1" id="Layer_1" xmlns="http://www.w3.org/2000/svg" xmlns:xlink="http://www.w3.org/1999/xlink" x="0px" y="0px"
	 width="200px" height="200px" viewBox="0 0 200 200" enable-background="new 0 0 200 200" xml:space="preserve">
<g>
	<path fill="#888888" d="M33.036,74.335l41.3-41.3c0.849-0.849,1.306-1.928,1.417-3.036H63.229L29,64.229v11.523
		c0.167,0.017,0.333,0.048,0.5,0.048C30.78,75.8,32.059,75.312,33.036,74.335z"/>
	<path fill="#888888" d="M170,36.361V30h-7.781L29,163.219V171h6.302c0.107-0.09,0.223-0.164,0.324-0.264L170,36.361z"/>
	<path fill="#888888" d="M33.036,147.875l114.84-114.84c0.849-0.849,1.306-1.928,1.417-3.036h-12.523L29,137.769v11.523
		c0.167,0.017,0.333,0.048,0.5,0.048C30.78,149.34,32.059,148.852,33.036,147.875z"/>
	<path fill="#888888" d="M33.036,123.835l90.8-90.8c0.849-0.849,1.306-1.928,1.417-3.036h-12.523L29,113.729v11.523
		c0.167,0.017,0.333,0.048,0.5,0.048C30.78,125.3,32.059,124.812,33.036,123.835z"/>
	<path fill="#888888" d="M33.036,98.375l65.34-65.34c0.849-0.849,1.306-1.928,1.417-3.036H87.269L29,88.269v11.523
		c0.167,0.017,0.333,0.048,0.5,0.048C30.78,99.84,32.059,99.352,33.036,98.375z"/>
	<path fill="#888888" d="M33.036,50.295l17.26-17.26c0.849-0.849,1.306-1.928,1.417-3.036H39.188L29,40.188v11.523
		c0.167,0.017,0.333,0.048,0.5,0.048C30.78,51.76,32.059,51.271,33.036,50.295z"/>
	<path fill="#888888" d="M170,122.838c-1.107,0.111-2.187,0.568-3.036,1.417l-42.71,42.71c-1.104,1.104-1.561,2.594-1.417,4.036
		h11.523L170,135.361V122.838z"/>
	<path fill="#888888" d="M170,97.378c-1.107,0.111-2.187,0.568-3.036,1.417l-68.17,68.17c-1.104,1.104-1.561,2.594-1.417,4.036
		h11.523L170,109.901V97.378z"/>
	<path fill="#888888" d="M170,148.288c-1.107,0.111-2.187,0.568-3.036,1.417l-17.26,17.26c-1.104,1.104-1.561,2.594-1.417,4.036
		h11.523L170,160.812V148.288z"/>
	<path fill="#888888" d="M170,73.338c-1.107,0.111-2.187,0.568-3.036,1.417l-92.21,92.21c-1.104,1.104-1.561,2.594-1.417,4.036
		h11.523L170,85.861V73.338z"/>
	<path fill="#888888" d="M170,47.888c-1.107,0.111-2.187,0.568-3.036,1.417l-117.66,117.66c-1.104,1.104-1.561,2.594-1.417,4.036
		h11.523L170,60.411V47.888z"/>
</g>
</svg>
