<?xml version="1.0" encoding="UTF-8"?>
<svg width="10px" height="6px" viewBox="0 0 10 6" version="1.1" xmlns="http://www.w3.org/2000/svg" xmlns:xlink="http://www.w3.org/1999/xlink">
    <!-- Generator: Sketch 63.1 (92452) - https://sketch.com -->
    <title>arrow-up copy 2</title>
    <desc>Created with Sketch.</desc>
    <g id="Page-1" stroke="none" stroke-width="1" fill="none" fill-rule="evenodd">
        <g id="position_dropmenu" transform="translate(-167.000000, -71.000000)" fill-rule="nonzero">
            <g id="arrow-up-copy-2" transform="translate(172.000000, 74.000000) scale(1, -1) translate(-172.000000, -74.000000) translate(164.000000, 66.000000)">
                <rect id="Rectangle" fill="#000000" opacity="0" x="0" y="0" width="16" height="16"></rect>
                <path d="M13,10.375 C13,10.543 12.938,10.689 12.814,10.814 C12.689,10.939 12.543,11 12.375,11 L3.625,11 C3.456,11 3.31,10.939 3.186,10.814 C3.061,10.689 3,10.543 3,10.375 C3,10.207 3.061,10.061 3.186,9.936 L7.561,5.561 C7.685,5.438 7.831,5.375 8,5.375 C8.168,5.375 8.314,5.437 8.439,5.561 L12.814,9.936 C12.938,10.061 13,10.207 13,10.375 Z" id="Path" fill="#888888"></path>
            </g>
        </g>
    </g>
</svg>