<svg xmlns="http://www.w3.org/2000/svg" viewBox="0 0 200 200"><path d="M69,108.472A23.054,23.054,0,0,0,92.028,131.5H121v25.972A13.028,13.028,0,0,1,107.972,170.5H42.028A13.028,13.028,0,0,1,29,157.472V91.528A13.028,13.028,0,0,1,42.028,78.5H69Z" fill="#888"/><path d="M157.972,29.5H92.028A13.028,13.028,0,0,0,79,42.528v65.944A13.028,13.028,0,0,0,92.028,121.5h65.944A13.028,13.028,0,0,0,171,108.472V42.528A13.028,13.028,0,0,0,157.972,29.5Zm-51.306,72.237-9.527,2.553a1.2,1.2,0,0,1-1.47-1.469l2.553-9.528,37.657-37.657,8.478,8.478ZM152,56.485l-3.4,3.391-8.482-8.482L143.515,48A6,6,0,0,1,152,56.485Z" fill="#888"/></svg>