<?xml version="1.0" encoding="utf-8"?>
<!-- Generator: Adobe Illustrator 16.0.0, SVG Export Plug-In . SVG Version: 6.00 Build 0)  -->
<!DOCTYPE svg PUBLIC "-//W3C//DTD SVG 1.1//EN" "http://www.w3.org/Graphics/SVG/1.1/DTD/svg11.dtd">
<svg version="1.1" id="Layer_1" xmlns="http://www.w3.org/2000/svg" xmlns:xlink="http://www.w3.org/1999/xlink" x="0px" y="0px"
	 width="200px" height="200px" viewBox="0 0 200 200" enable-background="new 0 0 200 200" xml:space="preserve">
<path fill="#888888" d="M171.459,100.063c0-24.155-19.459-43.922-42.459-45.601V50c0-5.522-4.707-10-10.229-10h-80
	C33.248,40,29,44.478,29,50v100c0,5.522,4.248,10,9.771,10h80c5.522,0,10.229-4.478,10.229-10v-4.336
	C152,143.985,171.459,124.219,171.459,100.063z M129,124.948v-49.77c12,1.604,21.833,12.13,21.833,24.885S141,123.344,129,124.948z
	 M116.831,132H97.877H78.72H41.831l28.023-41.785l18.444,27.55l9.478-14.161L116.831,132z M110.021,73.75
	c0,6.352-5.148,11.5-11.5,11.5s-11.5-5.148-11.5-11.5s5.148-11.5,11.5-11.5S110.021,67.398,110.021,73.75z"/>
</svg>
