<?xml version="1.0" encoding="utf-8"?>
<!-- Generator: Adobe Illustrator 16.0.0, SVG Export Plug-In . SVG Version: 6.00 Build 0)  -->
<!DOCTYPE svg PUBLIC "-//W3C//DTD SVG 1.1//EN" "http://www.w3.org/Graphics/SVG/1.1/DTD/svg11.dtd">
<svg version="1.1" id="Layer_1" xmlns="http://www.w3.org/2000/svg" xmlns:xlink="http://www.w3.org/1999/xlink" x="0px" y="0px"
	 width="200px" height="200px" viewBox="0 0 200 200" enable-background="new 0 0 200 200" xml:space="preserve">
<linearGradient id="SVGID_1_" gradientUnits="userSpaceOnUse" x1="30" y1="100" x2="170" y2="100">
	<stop  offset="0" style="stop-color:#888888"/>
	<stop  offset="1" style="stop-color:#B3B3B3"/>
</linearGradient>
<path fill="url(#SVGID_1_)" d="M50,50H30V30h20V50z M70,50H50v20h20V50z M90,30H70v20h20V30z M110,50H90v20h20V50z M130,30h-20v20
	h20V30z M150,50h-20v20h20V50z M170,30h-20v20h20V30z M50,70H30v20h20V70z M70,90H50v20h20V90z M90,70H70v20h20V70z M110,90H90v20
	h20V90z M130,70h-20v20h20V70z M150,90h-20v20h20V90z M170,70h-20v20h20V70z M50,110H30v20h20V110z M70,130H50v20h20V130z M90,110
	H70v20h20V110z M110,130H90v20h20V130z M130,110h-20v20h20V110z M150,130h-20v20h20V130z M170,110h-20v20h20V110z M50,150H30v20h20
	V150z M90,150H70v20h20V150z M130,150h-20v20h20V150z M170,150h-20v20h20V150z"/>
</svg>
