<?xml version="1.0" encoding="UTF-8"?>
<svg width="16px" height="15px" viewBox="0 0 16 15" version="1.1" xmlns="http://www.w3.org/2000/svg" xmlns:xlink="http://www.w3.org/1999/xlink">
    <!-- Generator: Sketch 63.1 (92452) - https://sketch.com -->
    <title>005-object-alignment-3</title>
    <desc>Created with Sketch.</desc>
    <g id="Page-1" stroke="none" stroke-width="1" fill="none" fill-rule="evenodd">
        <g id="position_dropmenu" transform="translate(-34.000000, -190.000000)" fill="#888888" fill-rule="nonzero">
            <g id="005-object-alignment-3" transform="translate(34.000000, 190.000000)">
                <path d="M15.53125,1.69107153e-13 L0.46875,1.69107153e-13 C0.20965625,1.69107153e-13 0,0.221785124 0,0.495867769 C0,0.769950413 0.20965625,0.991735537 0.46875,0.991735537 L15.53125,0.991735537 C15.7903437,0.991735537 16,0.769950413 16,0.495867769 C16,0.221785124 15.7903437,1.69107153e-13 15.53125,1.69107153e-13 Z" id="Path"></path>
                <path d="M13.6,1.98347107 L9.91515152,1.98347107 C9.66055919,1.98347107 9.45454545,2.1973353 9.45454545,2.46162928 L9.45454545,8.19952774 C9.45454545,8.46382172 9.66055919,8.67768595 9.91515152,8.67768595 L13.6,8.67768595 C13.8545923,8.67768595 14.0606061,8.46382172 14.0606061,8.19952774 L14.0606061,2.46162928 C14.0606061,2.1973353 13.8545923,1.98347107 13.6,1.98347107 Z" id="Path"></path>
                <path d="M6.08484848,1.98347107 L2.4,1.98347107 C2.14540768,1.98347107 1.93939394,2.196726 1.93939394,2.46026701 L1.93939394,13.9033694 C1.93939394,14.1669104 2.14540768,14.3801653 2.4,14.3801653 L6.08484848,14.3801653 C6.33944081,14.3801653 6.54545455,14.1669104 6.54545455,13.9033694 L6.54545455,2.46026701 C6.54545455,2.196726 6.33944081,1.98347107 6.08484848,1.98347107 Z" id="Path"></path>
            </g>
        </g>
    </g>
</svg>