<?xml version="1.0" encoding="UTF-8"?>
<svg width="16px" height="12px" viewBox="0 0 16 12" version="1.1" xmlns="http://www.w3.org/2000/svg" xmlns:xlink="http://www.w3.org/1999/xlink">
    <!-- Generator: Sketch 63.1 (92452) - https://sketch.com -->
    <title>013-alignment</title>
    <desc>Created with Sketch.</desc>
    <g id="Page-1" stroke="none" stroke-width="1" fill="none" fill-rule="evenodd">
        <g id="position_dropmenu" transform="translate(-34.000000, -231.000000)" fill="#888888" fill-rule="nonzero">
            <g id="013-alignment" transform="translate(34.000000, 231.000000)">
                <path d="M15.5198766,5.510907 L14.0730482,5.510907 L14.0730482,3.21469575 C14.0730482,2.96085725 13.8665212,2.7554535 13.6112945,2.7554535 L9.91726464,2.7554535 C9.66203796,2.7554535 9.45551091,2.96085725 9.45551091,3.21469575 L9.45551091,5.510907 L6.68498852,5.510907 L6.68498852,0.45924225 C6.68498852,0.20540375 6.47846147,0 6.22323479,0 L2.52920494,0 C2.27397826,0 2.06745121,0.20540375 2.06745121,0.45924225 L2.06745121,5.510907 L0.682190011,5.510907 C0.426963332,5.510907 0.22043628,5.71631075 0.22043628,5.97014925 C0.22043628,6.22398775 0.426963332,6.4293915 0.682190011,6.4293915 L2.06745121,6.4293915 L2.06745121,11.4810563 C2.06745121,11.7348948 2.27397826,11.9402985 2.52920494,11.9402985 L6.22323479,11.9402985 C6.47846147,11.9402985 6.68498852,11.7348948 6.68498852,11.4810563 L6.68498852,6.4293915 L9.45551091,6.4293915 L9.45551091,8.72560276 C9.45551091,8.97944126 9.66203796,9.18484501 9.91726464,9.18484501 L13.6112945,9.18484501 C13.8665212,9.18484501 14.0730482,8.97944126 14.0730482,8.72560276 L14.0730482,6.4293915 L15.5198766,6.4293915 C15.7751033,6.4293915 15.9816303,6.22398775 15.9816303,5.97014925 C15.9816303,5.71631075 15.7751033,5.510907 15.5198766,5.510907 Z" id="Path"></path>
            </g>
        </g>
    </g>
</svg>