<?xml version="1.0" encoding="UTF-8"?>
<svg width="16px" height="14px" viewBox="0 0 16 14" version="1.1" xmlns="http://www.w3.org/2000/svg" xmlns:xlink="http://www.w3.org/1999/xlink">
    <!-- Generator: Sketch 63.1 (92452) - https://sketch.com -->
    <title>021-alignment-4</title>
    <desc>Created with Sketch.</desc>
    <g id="Page-1" stroke="none" stroke-width="1" fill="none" fill-rule="evenodd">
        <g id="position_dropmenu" transform="translate(-34.000000, -270.000000)" fill="#888888" fill-rule="nonzero">
            <g id="021-alignment-4" transform="translate(34.000000, 270.000000)">
                <path d="M15.4680736,12.8831169 L0.614052489,12.8831169 C0.358323593,12.8831169 0.138528139,13.0689939 0.138528139,13.2987013 C0.138528139,13.5284087 0.358323593,13.7142857 0.614052489,13.7142857 L15.4680736,13.7142857 C15.7238025,13.7142857 15.9307359,13.5284087 15.9307359,13.2987013 C15.9307359,13.0689939 15.7238025,12.8831169 15.4680736,12.8831169 Z" id="Path"></path>
                <path d="M13.6034632,5.4025974 L9.94632035,5.4025974 C9.69364225,5.4025974 9.48917749,5.60838986 9.48917749,5.86270872 L9.48917749,11.3840445 C9.48917749,11.6383634 9.69364225,11.8441558 9.94632035,11.8441558 L13.6034632,11.8441558 C13.8561413,11.8441558 14.0606061,11.6383634 14.0606061,11.3840445 L14.0606061,5.86270872 C14.0606061,5.60838986 13.8561413,5.4025974 13.6034632,5.4025974 Z" id="Path"></path>
                <path d="M6.12294372,0 L2.46580087,0 C2.21312277,0 2.00865801,0.20374985 2.00865801,0.455544456 L2.00865801,11.3886114 C2.00865801,11.640406 2.21312277,11.8441558 2.46580087,11.8441558 L6.12294372,11.8441558 C6.37562182,11.8441558 6.58008658,11.640406 6.58008658,11.3886114 L6.58008658,0.455544456 C6.58008658,0.20374985 6.37562182,0 6.12294372,0 Z" id="Path"></path>
            </g>
        </g>
    </g>
</svg>