<?xml version="1.0" encoding="UTF-8"?>
<svg width="15px" height="16px" viewBox="0 0 15 16" version="1.1" xmlns="http://www.w3.org/2000/svg" xmlns:xlink="http://www.w3.org/1999/xlink">
    <!-- Generator: Sketch 63.1 (92452) - https://sketch.com -->
    <title>002-object-alignment copy</title>
    <desc>Created with Sketch.</desc>
    <g id="Page-1" stroke="none" stroke-width="1" fill="none" fill-rule="evenodd">
        <g id="position_dropmenu" transform="translate(-165.000000, -269.000000)" fill="#888888" fill-rule="nonzero">
            <g id="002-object-alignment-copy" transform="translate(172.500000, 277.000000) scale(-1, 1) translate(-172.500000, -277.000000) translate(165.000000, 269.000000)">
                <path d="M0.544921875,0 C0.262274148,0 0.0335582386,0.20965625 0.0335582386,0.46875 L0.0335582386,15.53125 C0.0335582386,15.7903437 0.262274148,16 0.544921875,16 C0.827569602,16 1.05628551,15.7903437 1.05628551,15.53125 L1.05628551,0.46875 C1.05628551,0.20965625 0.827569602,0 0.544921875,0 Z" id="Path"></path>
                <path d="M8.14232447,2 L2.35661019,2 C2.09011376,2 1.87446733,2.20574267 1.87446733,2.46 L1.87446733,6.14 C1.87446733,6.39425733 2.09011376,6.6 2.35661019,6.6 L8.14232447,6.6 C8.4088209,6.6 8.62446733,6.39425733 8.62446733,6.14 L8.62446733,2.46 C8.62446733,2.20574267 8.4088209,2 8.14232447,2 Z" id="Path"></path>
                <path d="M13.955305,9.4 L2.27090242,9.4 C2.00180413,9.4 1.78405231,9.60872444 1.78405231,9.86666667 L1.78405231,13.6 C1.78405231,13.8579422 2.00180413,14.0666667 2.27090242,14.0666667 L13.955305,14.0666667 C14.2244033,14.0666667 14.4421551,13.8579422 14.4421551,13.6 L14.4421551,9.86666667 C14.4421551,9.60872444 14.2244033,9.4 13.955305,9.4 Z" id="Path"></path>
            </g>
        </g>
    </g>
</svg>