<?xml version="1.0" encoding="UTF-8"?>
<svg width="13px" height="16px" viewBox="0 0 13 16" version="1.1" xmlns="http://www.w3.org/2000/svg" xmlns:xlink="http://www.w3.org/1999/xlink">
    <!-- Generator: Sketch 63.1 (92452) - https://sketch.com -->
    <title>010-align</title>
    <desc>Created with Sketch.</desc>
    <g id="Page-1" stroke="none" stroke-width="1" fill="none" fill-rule="evenodd">
        <g id="position_dropmenu" transform="translate(-167.000000, -229.000000)" fill="#888888" fill-rule="nonzero">
            <g id="010-align" transform="translate(167.000000, 229.000000)">
                <path d="M12.1462028,9.375 L6.86016161,9.375 L6.86016161,6.5625 L9.26290761,6.5625 C9.52852317,6.5625 9.74345681,6.35284375 9.74345681,6.09375 L9.74345681,2.34375 C9.74345681,2.08465625 9.52852317,1.875 9.26290761,1.875 L6.86016161,1.875 L6.86016161,0.46875 C6.86016161,0.20965625 6.64522797,0 6.37961241,0 C6.11399685,0 5.89906322,0.20965625 5.89906322,0.46875 L5.89906322,1.875 L3.49631722,1.875 C3.23070166,1.875 3.01576802,2.08465625 3.01576802,2.34375 L3.01576802,6.09375 C3.01576802,6.35284375 3.23070166,6.5625 3.49631722,6.5625 L5.89906322,6.5625 L5.89906322,9.375 L0.613022025,9.375 C0.347406465,9.375 0.132472826,9.58465625 0.132472826,9.84375 L0.132472826,13.59375 C0.132472826,13.8528437 0.347406465,14.0625 0.613022025,14.0625 L5.89906322,14.0625 L5.89906322,15.53125 C5.89906322,15.7903437 6.11399685,16 6.37961241,16 C6.64522797,16 6.86016161,15.7903437 6.86016161,15.53125 L6.86016161,14.0625 L12.1462028,14.0625 C12.4118184,14.0625 12.626752,13.8528437 12.626752,13.59375 L12.626752,9.84375 C12.626752,9.58465625 12.4118184,9.375 12.1462028,9.375 Z" id="Path"></path>
            </g>
        </g>
    </g>
</svg>