<?xml version="1.0" encoding="utf-8"?>
<!-- Generator: Adobe Illustrator 16.0.0, SVG Export Plug-In . SVG Version: 6.00 Build 0)  -->
<!DOCTYPE svg PUBLIC "-//W3C//DTD SVG 1.1//EN" "http://www.w3.org/Graphics/SVG/1.1/DTD/svg11.dtd">
<svg version="1.1" id="Layer_1" xmlns="http://www.w3.org/2000/svg" xmlns:xlink="http://www.w3.org/1999/xlink" x="0px" y="0px"
	 width="200px" height="200px" viewBox="0 0 200 200" enable-background="new 0 0 200 200" xml:space="preserve">
<path fill="#888888" d="M162.5,45h-121C31.014,45,24,48.666,24,55.098v71.447v13.407v0.837c0,5.875,6.331,11.221,12.599,13.131
	c0.008,0.002,0.14,0.004,0.147,0.007c0.365,0.11,0.792,0.203,1.158,0.29c0.184,0.045,0.397,0.096,0.583,0.134
	c0.262,0.054,0.536,0.087,0.796,0.127c0.243,0.038,0.493,0.25,0.736,0.275c0.497,0.053,0.997,0.247,1.48,0.247h29.2h40.8h51
	c6.302,0,12.5-5.195,12.5-14.211v-0.837V91.419V55.098C175,51.203,173.812,45,162.5,45z M111.5,145H81.76l13.125-15.082
	l51.332-57.668L165,93.336v46.616c0,0.996-0.009,5.048-2.5,5.048H111.5z M41.5,145c-2.982,0-6.5-3.689-7.5-5.048v-11.391
	l26.516-27.266l23.74,25.422L68.439,145H41.5z M91.25,68.92c6.352,0,11.5,5.148,11.5,11.5s-5.148,11.5-11.5,11.5
	s-11.5-5.148-11.5-11.5S84.898,68.92,91.25,68.92z"/>
</svg>
