<?xml version="1.0" encoding="utf-8"?>
<!-- Generator: Adobe Illustrator 16.0.0, SVG Export Plug-In . SVG Version: 6.00 Build 0)  -->
<!DOCTYPE svg PUBLIC "-//W3C//DTD SVG 1.1//EN" "http://www.w3.org/Graphics/SVG/1.1/DTD/svg11.dtd">
<svg version="1.1" id="Layer_1" xmlns="http://www.w3.org/2000/svg" xmlns:xlink="http://www.w3.org/1999/xlink" x="0px" y="0px"
	 width="200px" height="200px" viewBox="0 0 200 200" enable-background="new 0 0 200 200" xml:space="preserve">
<path fill="#888888" d="M71.926,69.978h10.65l21.235,55.202H92.891l-4.321-11.371H66.047l-4.491,11.371h-10.92L71.926,69.978z
	 M77.317,84.613l-7.405,18.951h14.766L77.317,84.613z M140.944,84.351h10.244v40.829h-10.244v-4.316
	c-2.001,1.902-4.003,3.271-6.017,4.109c-2.015,0.838-4.192,1.258-6.542,1.258c-5.272,0-9.832-2.045-13.68-6.137
	c-3.847-4.09-5.772-9.174-5.772-15.254c0-6.305,1.863-11.471,5.586-15.498c3.72-4.028,8.242-6.042,13.565-6.042
	c2.452,0,4.746,0.462,6.897,1.388s4.135,2.314,5.962,4.166V84.351z M130.173,92.756c-3.163,0-5.798,1.121-7.893,3.359
	s-3.14,5.109-3.14,8.612c0,3.527,1.062,6.429,3.197,8.706c2.132,2.276,4.759,3.414,7.873,3.414c3.215,0,5.886-1.119,8.007-3.357
	c2.112-2.239,3.177-5.173,3.177-8.801c0-3.553-1.064-6.43-3.177-8.631C136.097,93.857,133.413,92.756,130.173,92.756z M170.5,39.5
	c0-5.523-4.478-10-10-10h-121c-5.522,0-10,4.477-10,10v121c0,5.523,4.478,10,10,10h121c5.522,0,10-4.477,10-10V39.5z"/>
</svg>
