<?xml version="1.0" encoding="UTF-8"?>
<svg width="12px" height="10px" viewBox="0 0 12 10" version="1.1" xmlns="http://www.w3.org/2000/svg" xmlns:xlink="http://www.w3.org/1999/xlink">
    <!-- Generator: Sketch 63.1 (92452) - https://sketch.com -->
    <title>Group</title>
    <desc>Created with Sketch.</desc>
    <g id="Page-1" stroke="none" stroke-width="1" fill="none" fill-rule="evenodd">
        <g id="position_dropmenu" transform="translate(-166.000000, -110.000000)" fill-rule="nonzero">
            <g id="Group" transform="translate(164.000000, 106.000000)">
                <g id="arrow_up-copy-2" transform="translate(8.000000, 8.000000) scale(1, -1) translate(-8.000000, -8.000000) ">
                    <rect id="Rectangle" fill="#000000" opacity="0" x="0" y="0" width="16" height="16"></rect>
                    <path d="M13.03975,6.7250366 L8.54,2.2247866 L8.53975,2.2250366 C8.3986121,2.07819908 8.20366912,1.99530994 8,1.99553614 L7.9965,1.99553614 C7.79283088,1.99530994 7.5978879,2.07819908 7.45675,2.2250366 L7.4565,2.2247866 L2.9565,6.7247866 L2.9585,6.7267866 C2.76718318,6.92328811 2.69837704,7.2085456 2.77907281,7.47065848 C2.85976859,7.73277135 3.07709684,7.92993765 3.34580421,7.98481313 C3.61451158,8.0396886 3.89174441,7.94352166 4.06875,7.7340366 L7.99825,3.8045366 L11.97925,7.7855366 L11.9795,7.7852866 C12.2745237,8.06434026 12.738058,8.05789406 13.0252077,7.77074434 C13.3123575,7.48359461 13.3188037,7.02006031 13.03975,6.7250366 L13.03975,6.7250366 Z" id="Path-Copy" fill="#888888"></path>
                </g>
                <g id="arrow-up-copy" transform="translate(8.000000, 6.500000) scale(1, -1) translate(-8.000000, -6.500000) translate(3.000000, 3.000000)" fill="#888888">
                    <path d="M10,5.375 C10,5.543 9.938,5.689 9.814,5.814 C9.689,5.939 9.543,6 9.375,6 L0.625,6 C0.456,6 0.31,5.939 0.186,5.814 C0.061,5.689 0,5.543 0,5.375 C0,5.207 0.061,5.061 0.186,4.936 L4.561,0.561 C4.685,0.438 4.831,0.375 5,0.375 C5.168,0.375 5.314,0.437 5.439,0.561 L9.814,4.936 C9.938,5.061 10,5.207 10,5.375 Z" id="Path"></path>
                </g>
            </g>
        </g>
    </g>
</svg>