<?xml version="1.0" encoding="utf-8"?>
<!-- Generator: Adobe Illustrator 16.0.0, SVG Export Plug-In . SVG Version: 6.00 Build 0)  -->
<!DOCTYPE svg PUBLIC "-//W3C//DTD SVG 1.1//EN" "http://www.w3.org/Graphics/SVG/1.1/DTD/svg11.dtd">
<svg version="1.1" id="Layer_1" xmlns="http://www.w3.org/2000/svg" xmlns:xlink="http://www.w3.org/1999/xlink" x="0px" y="0px"
	 width="200px" height="200px" viewBox="0 0 200 200" enable-background="new 0 0 200 200" xml:space="preserve">
<path fill="#888888" d="M148.723,46H126V32.129c0-1.73-1.881-2.129-4.58-2.129h-43.4C75.32,30,73,30.398,73,32.129V46H51.76
	C46.863,46,43,48.605,43,53.502v15.633C43,74.032,46.863,79,51.76,79H52v82.086c0,4.79,4.161,9.914,8.951,9.914h76.494
	c4.791,0,8.555-5.124,8.555-9.914V79h2.723c4.897,0,8.277-4.968,8.277-9.865V53.502C157,48.605,153.62,46,148.723,46z M78,135.351
	c0,2.879-2.12,5.214-5,5.214s-5-2.335-5-5.214V93.643c0-2.879,2.12-5.214,5-5.214s5,2.335,5,5.214V135.351z M104,135.351
	c0,2.879-2.121,5.214-5,5.214s-5-2.335-5-5.214V93.643c0-2.879,2.121-5.214,5-5.214s5,2.335,5,5.214V135.351z M130,135.351
	c0,2.879-2.121,5.214-5,5.214s-5-2.335-5-5.214V93.643c0-2.879,2.121-5.214,5-5.214s5,2.335,5,5.214V135.351z"/>
</svg>
