<?xml version="1.0" encoding="utf-8"?>
<!-- Generator: Adobe Illustrator 16.0.0, SVG Export Plug-In . SVG Version: 6.00 Build 0)  -->
<!DOCTYPE svg PUBLIC "-//W3C//DTD SVG 1.1//EN" "http://www.w3.org/Graphics/SVG/1.1/DTD/svg11.dtd">
<svg version="1.1" id="Layer_1" xmlns="http://www.w3.org/2000/svg" xmlns:xlink="http://www.w3.org/1999/xlink" x="0px" y="0px"
	 width="200px" height="200px" viewBox="0 0 200 200" enable-background="new 0 0 200 200" xml:space="preserve">
<path fill="#888888" d="M150.723,94H80V69.258c0-11.027,8.973-20,20-20s20,8.973,20,20V74h20v-4.742c0-22.092-17.574-40-39.666-40
	S60.08,48.129,60.08,70.22L60.039,94H49.277C44.154,94,40,97.896,40,103.02v58.445c0,5.124,4.154,9.535,9.277,9.535h101.445
	c5.124,0,9.277-4.411,9.277-9.535V103.02C160,97.896,155.847,94,150.723,94z"/>
</svg>
