<svg xmlns="http://www.w3.org/2000/svg" viewBox="0 0 200 200"><path d="M160.5,29.5H39.5a10,10,0,0,0-10,10v121a10,10,0,0,0,10,10h121a10,10,0,0,0,10-10V39.5A10,10,0,0,0,160.5,29.5Zm0,131H39.5V39.5h121Z" fill="#888"/><path d="M136.5,115.453v18h-73v-18h-10v18a10,10,0,0,0,10,10h73a10,10,0,0,0,10-10v-18Z" fill="#888"/><polygon points="95.5 75.189 95.5 124.453 105.5 124.453 105.5 76.189 123.335 94.024 130.406 86.953 107.071 63.618 107.071 63.618 100 56.547 69.594 86.953 76.665 94.024 95.5 75.189" fill="#888"/></svg>